<svg xmlns="http://www.w3.org/2000/svg" width="1058" height="800" viewBox="0 0 1058 800" version="1.1"><path d="M 165.329 49.750 C 212.535 49.894, 289.485 49.894, 336.329 49.750 C 383.173 49.606, 344.550 49.489, 250.500 49.489 C 156.450 49.489, 118.123 49.606, 165.329 49.750 M 670.750 49.750 C 728.087 49.893, 821.913 49.893, 879.250 49.750 C 936.587 49.607, 889.675 49.491, 775 49.491 C 660.325 49.491, 613.413 49.607, 670.750 49.750 M 1004.489 245.500 C 1004.489 342.850, 1004.606 382.527, 1004.750 333.671 C 1004.893 284.815, 1004.893 205.165, 1004.750 156.671 C 1004.606 108.177, 1004.489 148.150, 1004.489 245.500 M 57.494 408 C 57.494 591.975, 57.609 667.237, 57.750 575.250 C 57.891 483.262, 57.891 332.737, 57.750 240.750 C 57.609 148.762, 57.494 224.025, 57.494 408 M 267.829 158.750 C 309.809 158.894, 378.209 158.894, 419.829 158.750 C 461.448 158.605, 427.100 158.487, 343.500 158.487 C 259.900 158.487, 225.848 158.605, 267.829 158.750 M 642.829 158.750 C 684.809 158.894, 753.209 158.894, 794.829 158.750 C 836.448 158.605, 802.100 158.487, 718.500 158.487 C 634.900 158.487, 600.848 158.605, 642.829 158.750 M 1004.482 634 C 1004.482 692.025, 1004.602 715.762, 1004.750 686.750 C 1004.897 657.737, 1004.897 610.262, 1004.750 581.250 C 1004.602 552.237, 1004.482 575.975, 1004.482 634 M 266.329 649.750 C 308.584 649.894, 377.434 649.894, 419.329 649.750 C 461.223 649.605, 426.650 649.487, 342.500 649.487 C 258.350 649.487, 224.073 649.606, 266.329 649.750 M 643.329 649.750 C 685.584 649.894, 754.434 649.894, 796.329 649.750 C 838.223 649.605, 803.650 649.487, 719.500 649.487 C 635.350 649.487, 601.073 649.606, 643.329 649.750 M 82 759.042 C 89.185 760.035, 482.815 760.035, 490 759.042 C 493.025 758.624, 401.225 758.282, 286 758.282 C 170.775 758.282, 78.975 758.624, 82 759.042 M 572 759.042 C 579.652 760.100, 981.036 760.059, 983.500 759 C 984.623 758.517, 893.635 758.171, 776 758.211 C 660.775 758.250, 568.975 758.624, 572 759.042" stroke="none" fill="#5b71c2" fill-rule="evenodd"/><path d="M 73.417 49.379 C 66.326 51.325, 61.334 55.398, 58.533 61.522 L 56 67.059 56 404.452 L 56 741.844 58.250 746.921 C 59.487 749.713, 61.077 751.998, 61.781 751.999 C 62.486 751.999, 63.326 752.686, 63.648 753.524 C 64.751 756.399, 74.551 760.014, 80.780 759.843 L 86.500 759.686 81.500 759 C 78.750 758.623, 170.775 758.314, 286 758.314 C 401.225 758.314, 493.250 758.623, 490.500 759 L 485.500 759.686 490.705 759.843 C 495.830 759.998, 495.918 759.951, 496.504 756.750 C 497.255 752.647, 496.703 649.368, 495.926 648.592 C 495.610 648.276, 425.726 648.006, 340.628 647.991 C 239.698 647.972, 186.116 647.622, 186.512 646.981 C 186.845 646.442, 186.678 646, 186.140 646 C 184.137 646, 178.535 638.874, 177.305 634.760 C 176.296 631.389, 176.027 598.025, 176.015 474.832 C 176.007 389.214, 176.273 318.452, 176.607 317.582 C 177.286 315.813, 179.161 315.559, 181.764 316.883 C 182.719 317.369, 184.625 318.222, 186 318.779 C 187.375 319.335, 191.020 320.963, 194.100 322.395 C 197.179 323.828, 199.980 325, 200.322 325 C 200.665 325, 203.545 326.172, 206.723 327.603 C 209.900 329.035, 213.400 330.553, 214.500 330.977 C 215.600 331.400, 218.525 332.664, 221 333.786 C 229.292 337.544, 245.054 344, 245.937 344 C 246.418 344, 248.541 344.860, 250.655 345.911 C 258.615 349.866, 267.909 354, 268.842 354 C 269.375 354, 271.541 354.845, 273.655 355.878 C 275.770 356.910, 279.975 358.776, 283 360.024 C 295.551 365.202, 299.665 366.948, 306.239 369.884 C 308.846 371.048, 311.332 372, 311.765 372 C 312.197 372, 315.239 373.336, 318.525 374.969 C 321.811 376.601, 325.020 377.951, 325.655 377.969 C 326.291 377.986, 328.766 378.964, 331.155 380.142 C 333.545 381.320, 336.400 382.625, 337.500 383.042 C 338.600 383.459, 341.633 384.746, 344.239 385.900 C 346.846 387.055, 349.391 388, 349.895 388 C 350.399 388, 352.541 388.847, 354.655 389.882 C 358.368 391.699, 362.201 393.447, 372.239 397.898 C 374.846 399.054, 377.345 400, 377.793 400 C 378.241 400, 380.833 401.078, 383.554 402.396 C 386.274 403.714, 392.550 406.461, 397.500 408.500 C 402.450 410.539, 408.408 413.061, 410.739 414.104 C 413.071 415.147, 415.391 416, 415.895 416 C 416.399 416, 418.541 416.847, 420.655 417.882 C 424.368 419.699, 428.201 421.447, 438.239 425.898 C 440.846 427.054, 443.419 428, 443.959 428 C 444.498 428, 446.415 428.817, 448.220 429.815 C 450.024 430.814, 453.525 432.426, 456 433.397 C 458.475 434.369, 462.075 435.848, 464 436.684 C 465.925 437.520, 468.400 438.562, 469.500 439 C 474.387 440.945, 485.849 446.010, 492.748 449.273 C 493.985 449.858, 495.335 449.999, 495.748 449.586 C 496.728 448.608, 497.372 386.678, 496.500 377.250 C 496.009 371.947, 495.446 370, 494.401 370 C 493.616 370, 492.191 369.588, 491.236 369.084 C 489.222 368.021, 486.499 366.873, 462.500 356.964 C 452.927 353.012, 447.366 350.617, 440 347.276 C 436.975 345.904, 432.258 343.896, 429.517 342.813 C 426.777 341.731, 422.151 339.755, 419.238 338.423 C 416.324 337.090, 413.724 336, 413.459 336 C 412.902 336, 404.329 332.275, 401.764 330.918 C 400.809 330.413, 399.611 330, 399.103 330 C 398.594 330, 394.815 328.425, 390.704 326.500 C 386.594 324.575, 382.929 323, 382.560 323 C 382.192 323, 379.777 322.049, 377.195 320.886 C 368.131 316.805, 364.394 315.192, 352 310.008 C 345.125 307.133, 337.925 304.101, 336 303.272 C 334.075 302.442, 331.150 301.195, 329.500 300.502 C 324.907 298.571, 313.858 293.897, 310.500 292.464 C 292.472 284.769, 285.829 282, 285.392 282 C 285.107 282, 281.865 280.606, 278.187 278.902 C 274.509 277.199, 270.600 275.451, 269.500 275.019 C 266.922 274.007, 248.773 266.292, 243.261 263.866 C 240.929 262.840, 238.812 262, 238.556 262 C 238.299 262, 235.257 260.700, 231.795 259.112 C 228.333 257.523, 223.925 255.652, 222 254.952 C 220.075 254.253, 215.575 252.359, 212 250.743 C 208.425 249.127, 204.600 247.443, 203.500 247.002 C 202.400 246.560, 199.367 245.254, 196.761 244.100 C 194.154 242.945, 191.787 242, 191.500 242 C 190.794 242, 182.103 238.162, 179 236.479 L 176.500 235.124 176.500 206.312 C 176.500 190.465, 176.860 175.803, 177.299 173.729 C 178.197 169.494, 183.062 163.399, 186.938 161.654 C 188.822 160.805, 230.131 160.368, 343 160 L 496.500 159.500 496.500 104 L 496.500 48.500 287 48.379 C 135.060 48.292, 76.378 48.567, 73.417 49.379 M 550 49 C 550 49.556, 552.667 50, 556 50 C 559.333 50, 562 49.556, 562 49 C 562 48.444, 559.333 48, 556 48 C 552.667 48, 550 48.444, 550 49 M 565.667 48.667 C 564.834 49.500, 564.776 156.252, 565.607 158.418 C 566.157 159.851, 580.581 160, 718.769 160 L 871.324 160 875.597 162.504 C 877.947 163.881, 880.911 166.468, 882.185 168.254 C 884.476 171.467, 884.503 171.836, 884.802 204.476 C 884.968 222.612, 884.873 238.362, 884.591 239.476 C 884.309 240.589, 882.598 242.108, 880.789 242.851 C 878.980 243.594, 876.150 244.794, 874.500 245.518 C 872.850 246.242, 865.650 249.159, 858.500 252 C 851.350 254.841, 843.925 257.849, 842 258.685 C 840.075 259.520, 837.600 260.562, 836.500 261 C 835.400 261.438, 832.925 262.481, 831 263.317 C 829.075 264.154, 823.900 266.261, 819.500 268 C 815.100 269.739, 810.150 271.755, 808.500 272.480 C 806.850 273.205, 804.070 274.389, 802.322 275.111 C 800.574 275.834, 799.294 276.666, 799.476 276.962 C 799.659 277.258, 798.717 277.565, 797.384 277.645 C 795.162 277.779, 792.621 278.765, 784.596 282.609 C 782.999 283.374, 781.307 284, 780.835 284 C 780.364 284, 777.846 284.945, 775.239 286.100 C 772.633 287.254, 769.600 288.560, 768.500 289 C 767.400 289.440, 764.367 290.746, 761.761 291.900 C 759.154 293.055, 756.787 294, 756.500 294 C 756.213 294, 753.846 294.945, 751.239 296.100 C 748.633 297.254, 745.487 298.604, 744.250 299.100 C 743.013 299.595, 740.763 300.510, 739.250 301.134 C 737.737 301.757, 735.600 302.619, 734.500 303.049 C 733.400 303.478, 728.098 305.668, 722.718 307.915 C 717.338 310.162, 712.474 312, 711.909 312 C 711.344 312, 711.090 312.337, 711.345 312.750 C 711.600 313.163, 710.837 313.558, 709.651 313.629 C 708.464 313.700, 705.358 314.712, 702.747 315.879 C 700.136 317.045, 695.980 318.900, 693.511 320 C 691.042 321.100, 688.540 322, 687.952 322 C 687.363 322, 687.090 322.337, 687.345 322.750 C 687.600 323.163, 686.675 323.568, 685.290 323.651 C 683.126 323.781, 678.559 325.624, 671.764 329.109 C 670.809 329.599, 669.566 330, 669.003 330 C 668.439 330, 665.846 330.952, 663.239 332.116 C 655.018 335.788, 652.758 336.734, 642 341.006 C 636.225 343.300, 629.124 346.262, 626.220 347.588 C 623.317 348.915, 620.499 350, 619.959 350 C 619.420 350, 616.846 350.952, 614.239 352.116 C 606.224 355.696, 603.701 356.765, 598 359 C 594.975 360.186, 591.150 361.730, 589.500 362.431 C 587.850 363.133, 584.250 364.641, 581.500 365.782 C 565.152 372.569, 566.290 371.755, 565.572 377.172 C 565.213 379.877, 564.980 397.369, 565.053 416.045 C 565.210 455.750, 563.708 452.247, 578 446.250 C 579.925 445.443, 582.807 444.156, 584.404 443.391 C 586.001 442.626, 587.693 442, 588.165 442 C 588.636 442, 590.929 441.115, 593.261 440.033 C 599.313 437.224, 618.747 429.177, 623.640 427.454 C 629.810 425.280, 633.061 423.403, 632.235 422.491 C 631.831 422.045, 632.064 422.004, 632.753 422.401 C 633.781 422.992, 646.922 418.185, 662.500 411.518 C 664.150 410.812, 667.075 409.652, 669 408.941 C 673.451 407.296, 684.959 402.275, 687.236 400.984 C 688.191 400.443, 689.415 400, 689.955 400 C 690.798 400, 703.908 394.697, 713.500 390.476 C 715.150 389.750, 718.975 388.186, 722 387 C 727.701 384.765, 730.224 383.696, 738.239 380.116 C 740.846 378.952, 743.364 378, 743.835 378 C 744.307 378, 745.999 377.374, 747.596 376.609 C 751.968 374.515, 756.842 372.477, 763.500 369.958 C 766.800 368.710, 772.200 366.464, 775.500 364.967 C 778.800 363.471, 783.075 361.688, 785 361.006 C 788.221 359.864, 789.872 359.187, 798.500 355.470 C 800.150 354.759, 804.629 352.962, 808.453 351.476 C 812.277 349.990, 816.777 348.187, 818.453 347.470 C 822.421 345.773, 826.523 344.060, 837.500 339.517 C 842.450 337.469, 848.408 334.939, 850.739 333.896 C 853.071 332.853, 855.349 332, 855.801 332 C 856.633 332, 864.033 328.741, 867.236 326.963 C 868.191 326.433, 869.416 326, 869.957 326 C 870.498 326, 873.400 324.875, 876.406 323.500 C 879.412 322.125, 882.582 321, 883.451 321 C 884.884 321, 885.006 335.615, 884.765 479.290 L 884.500 637.580 882 640.649 C 880.625 642.336, 877.700 644.682, 875.500 645.861 L 871.500 648.006 718.250 648.003 L 565 648 565 702.418 C 565 732.348, 565.273 757.548, 565.607 758.418 C 566.064 759.608, 567.488 759.961, 571.357 759.843 L 576.500 759.686 571.500 759 C 568.750 758.623, 660.775 758.275, 776 758.227 C 893.619 758.179, 984.623 758.517, 983.500 759 L 981.500 759.859 983.500 759.915 C 985.814 759.979, 991.149 758.151, 995.574 755.779 C 998.602 754.155, 1002.397 749.179, 1004.782 743.703 C 1006.558 739.625, 1006.560 70.627, 1004.784 64.616 C 1004.018 62.024, 1001.704 58.636, 998.534 55.464 C 994.513 51.442, 992.428 50.184, 988.174 49.214 C 984.089 48.283, 934.315 48, 774.590 48 C 660.049 48, 566.033 48.300, 565.667 48.667 M 165.329 49.750 C 212.535 49.894, 289.485 49.894, 336.329 49.750 C 383.173 49.606, 344.550 49.489, 250.500 49.489 C 156.450 49.489, 118.123 49.606, 165.329 49.750 M 670.750 49.750 C 728.087 49.893, 821.913 49.893, 879.250 49.750 C 936.587 49.607, 889.675 49.491, 775 49.491 C 660.325 49.491, 613.413 49.607, 670.750 49.750 M 1004.489 245.500 C 1004.489 342.850, 1004.606 382.527, 1004.750 333.671 C 1004.893 284.815, 1004.893 205.165, 1004.750 156.671 C 1004.606 108.177, 1004.489 148.150, 1004.489 245.500 M 57.494 408 C 57.494 591.975, 57.609 667.237, 57.750 575.250 C 57.891 483.262, 57.891 332.737, 57.750 240.750 C 57.609 148.762, 57.494 224.025, 57.494 408 M 267.829 158.750 C 309.809 158.894, 378.209 158.894, 419.829 158.750 C 461.448 158.605, 427.100 158.487, 343.500 158.487 C 259.900 158.487, 225.848 158.605, 267.829 158.750 M 642.829 158.750 C 684.809 158.894, 753.209 158.894, 794.829 158.750 C 836.448 158.605, 802.100 158.487, 718.500 158.487 C 634.900 158.487, 600.848 158.605, 642.829 158.750 M 1004.482 634 C 1004.482 692.025, 1004.602 715.762, 1004.750 686.750 C 1004.897 657.737, 1004.897 610.262, 1004.750 581.250 C 1004.602 552.237, 1004.482 575.975, 1004.482 634 M 266.329 649.750 C 308.584 649.894, 377.434 649.894, 419.329 649.750 C 461.223 649.605, 426.650 649.487, 342.500 649.487 C 258.350 649.487, 224.073 649.606, 266.329 649.750 M 643.329 649.750 C 685.584 649.894, 754.434 649.894, 796.329 649.750 C 838.223 649.605, 803.650 649.487, 719.500 649.487 C 635.350 649.487, 601.073 649.606, 643.329 649.750" stroke="none" fill="#8c54fb" fill-rule="evenodd"/></svg>