<svg xmlns="http://www.w3.org/2000/svg" width="1080" height="763" viewBox="0 0 1080 763" version="1.1"><path d="M 307.304 205.956 L 304.109 207.904 303.010 211.702 L 301.911 215.500 302.206 384.231 L 302.500 552.962 305.769 556.231 L 309.038 559.500 416.019 559.763 L 523 560.027 523 532.013 L 523 504 445.556 504 L 368.112 504 365.306 501.587 L 362.500 499.174 362.233 418.087 L 361.965 337 362.323 337 L 362.681 337 386.591 347.112 L 410.500 357.224 426.500 364.007 L 442.500 370.790 459 377.785 L 475.500 384.780 498.500 394.493 L 521.500 404.205 522.250 404.662 L 523 405.118 522.977 385.309 L 522.954 365.500 504.227 357.603 L 485.500 349.706 468.500 342.488 L 451.500 335.270 426 324.466 L 400.500 313.662 381.500 305.581 L 362.500 297.500 362.224 281.676 L 361.948 265.852 365.374 262.426 L 368.800 259 445.900 259 L 523 259 523 231.500 L 523 204 416.750 204.004 L 310.500 204.007 307.304 205.956 M 557 231.500 L 557 259 634.100 259 L 711.200 259 714.624 262.424 L 718.048 265.848 717.774 283.045 L 717.500 300.241 637.250 333.277 L 557 366.314 557 385.657 L 557 405 557.314 405 L 557.627 405 581.064 395.419 L 604.500 385.839 618 380.318 L 631.500 374.797 673.690 357.398 L 715.881 340 716.958 340 L 718.035 340 717.768 419.587 L 717.500 499.174 714.694 501.587 L 711.888 504 634.444 504 L 557 504 557 532.013 L 557 560.027 663.981 559.763 L 770.962 559.500 774.231 556.231 L 777.500 552.962 777.794 384.231 L 778.089 215.500 776.990 211.702 L 775.891 207.904 772.696 205.956 L 769.500 204.007 663.250 204.004 L 557 204 557 231.500" stroke="none" fill="#3b93fb" fill-rule="evenodd"/><path d="M 282.500 54.705 L 279.500 55.111 272 57.151 L 264.500 59.191 255.739 63.779 L 246.977 68.366 239.462 75.291 L 231.947 82.216 227.455 88.512 L 222.962 94.807 219.960 101.428 L 216.958 108.048 214.986 116.274 L 213.014 124.500 213.014 382 L 213.014 639.500 214.942 647.500 L 216.870 655.500 219.054 660.500 L 221.239 665.500 226.598 673.623 L 231.957 681.745 237.918 687.264 L 243.879 692.783 251.299 697.407 L 258.719 702.032 267.609 705.051 L 276.500 708.070 286.500 709.037 L 296.500 710.004 541 709.900 L 785.500 709.795 794.696 708.965 L 803.891 708.135 812.390 705.206 L 820.888 702.277 828.435 697.573 L 835.982 692.869 841.615 687.721 L 847.248 682.573 852.195 675.536 L 857.141 668.500 860.160 662 L 863.178 655.500 865.074 648 L 866.969 640.500 866.985 381.910 L 867 123.320 865.081 115.817 L 863.162 108.313 860.195 101.769 L 857.228 95.226 853.245 89.363 L 849.262 83.500 841.744 76.360 L 834.225 69.220 827.245 65.143 L 820.264 61.066 812.512 58.536 L 804.760 56.005 798.630 55.010 L 792.500 54.015 539 54.157 L 285.500 54.300 282.500 54.705 M 307.304 205.956 L 304.109 207.904 303.010 211.702 L 301.911 215.500 302.206 384.231 L 302.500 552.962 305.769 556.231 L 309.038 559.500 416.019 559.763 L 523 560.027 523 532.013 L 523 504 445.556 504 L 368.112 504 365.306 501.587 L 362.500 499.174 362.233 418.087 L 361.965 337 362.323 337 L 362.681 337 386.591 347.112 L 410.500 357.224 426.500 364.007 L 442.500 370.790 459 377.785 L 475.500 384.780 498.500 394.493 L 521.500 404.205 522.250 404.662 L 523 405.118 522.977 385.309 L 522.954 365.500 504.227 357.603 L 485.500 349.706 468.500 342.488 L 451.500 335.270 426 324.466 L 400.500 313.662 381.500 305.581 L 362.500 297.500 362.224 281.676 L 361.948 265.852 365.374 262.426 L 368.800 259 445.900 259 L 523 259 523 231.500 L 523 204 416.750 204.004 L 310.500 204.007 307.304 205.956 M 557 231.500 L 557 259 634.100 259 L 711.200 259 714.624 262.424 L 718.048 265.848 717.774 283.045 L 717.500 300.241 637.250 333.277 L 557 366.314 557 385.657 L 557 405 557.314 405 L 557.627 405 581.064 395.419 L 604.500 385.839 618 380.318 L 631.500 374.797 673.690 357.398 L 715.881 340 716.958 340 L 718.035 340 717.768 419.587 L 717.500 499.174 714.694 501.587 L 711.888 504 634.444 504 L 557 504 557 532.013 L 557 560.027 663.981 559.763 L 770.962 559.500 774.231 556.231 L 777.500 552.962 777.794 384.231 L 778.089 215.500 776.990 211.702 L 775.891 207.904 772.696 205.956 L 769.500 204.007 663.250 204.004 L 557 204 557 231.500" stroke="none" fill="#040b3b" fill-rule="evenodd"/></svg>