<svg xmlns="http://www.w3.org/2000/svg" width="600" height="600" viewBox="0 0 600 600" version="1.1"><path d="M 99.250 148.662 L 98 149.167 98 299.976 L 98 450.786 99.582 451.393 L 101.164 452 193.082 452 L 285 452 285 428 L 285 404 217 404 L 149 404 149 332.893 L 149 261.786 150.250 262.266 L 151.500 262.746 177.500 273.775 L 203.500 284.803 243.826 301.902 L 284.151 319 284.576 319 L 285 319 285 302.605 L 285 286.210 266.750 278.458 L 248.500 270.705 217.500 257.530 L 186.500 244.354 167.753 236.427 L 149.007 228.500 149.003 212.250 L 149 196 217 196 L 285 196 285 172 L 285 148 192.750 148.079 L 100.500 148.158 99.250 148.662 M 315 172 L 315 196 383 196 L 451 196 451 213.391 L 451 230.782 438.250 235.999 L 425.500 241.216 408 248.446 L 390.500 255.676 352.816 271.088 L 315.133 286.500 314.816 302.350 L 314.500 318.201 315 318.969 L 315.500 319.737 379.500 293.380 L 443.500 267.023 447.250 265.520 L 451 264.016 451 334.008 L 451 404 383 404 L 315 404 315 428 L 315 452 406.918 452 L 498.836 452 500.418 451.393 L 502 450.786 502 300 L 502 149.214 500.418 148.607 L 498.836 148 406.918 148 L 315 148 315 172" stroke="none" fill="#3a93fa" fill-rule="evenodd"/><path d="M 109 21.670 L 105.500 22.039 98.500 23.644 L 91.500 25.249 84 28.306 L 76.500 31.364 70 35.319 L 63.500 39.273 57.818 43.730 L 52.137 48.188 47.281 53.844 L 42.425 59.500 38.833 64.500 L 35.241 69.500 31.761 76.500 L 28.281 83.500 26.223 90 L 24.165 96.500 22.833 102 L 21.500 107.500 21.500 300.500 L 21.500 493.500 23.264 500.760 L 25.028 508.019 28.071 515.678 L 31.113 523.337 33.745 527.919 L 36.376 532.500 40.740 538.700 L 45.104 544.899 52.688 551.982 L 60.272 559.064 68.311 564.012 L 76.350 568.959 83.688 572.014 L 91.027 575.069 100.264 577.019 L 109.500 578.969 299.792 578.984 L 490.084 579 497.792 577.441 L 505.500 575.882 511.500 573.807 L 517.500 571.732 523.500 568.738 L 529.500 565.744 536.725 560.764 L 543.951 555.784 550.725 548.641 L 557.500 541.497 561.107 535.998 L 564.713 530.500 567.172 526 L 569.631 521.500 572.293 514.795 L 574.956 508.090 576.728 500.795 L 578.500 493.500 578.500 300.500 L 578.500 107.500 576.619 99.500 L 574.737 91.500 572.179 85 L 569.621 78.500 566.641 73 L 563.661 67.500 558.503 60.500 L 553.344 53.500 547.422 48.078 L 541.500 42.656 533.276 37.282 L 525.053 31.908 517.776 28.883 L 510.500 25.857 503 23.707 L 495.500 21.557 304 21.429 L 112.500 21.300 109 21.670 M 99.250 148.662 L 98 149.167 98 299.976 L 98 450.786 99.582 451.393 L 101.164 452 193.082 452 L 285 452 285 428 L 285 404 217 404 L 149 404 149 332.893 L 149 261.786 150.250 262.266 L 151.500 262.746 177.500 273.775 L 203.500 284.803 243.826 301.902 L 284.151 319 284.576 319 L 285 319 285 302.605 L 285 286.210 266.750 278.458 L 248.500 270.705 217.500 257.530 L 186.500 244.354 167.753 236.427 L 149.007 228.500 149.003 212.250 L 149 196 217 196 L 285 196 285 172 L 285 148 192.750 148.079 L 100.500 148.158 99.250 148.662 M 315 172 L 315 196 383 196 L 451 196 451 213.391 L 451 230.782 438.250 235.999 L 425.500 241.216 408 248.446 L 390.500 255.676 352.816 271.088 L 315.133 286.500 314.816 302.350 L 314.500 318.201 315 318.969 L 315.500 319.737 379.500 293.380 L 443.500 267.023 447.250 265.520 L 451 264.016 451 334.008 L 451 404 383 404 L 315 404 315 428 L 315 452 406.918 452 L 498.836 452 500.418 451.393 L 502 450.786 502 300 L 502 149.214 500.418 148.607 L 498.836 148 406.918 148 L 315 148 315 172" stroke="none" fill="#040b3c" fill-rule="evenodd"/></svg>